<?xml version="1.0" encoding="utf-8"?>
<!-- Generator: Adobe Illustrator 15.1.0, SVG Export Plug-In  -->
<!DOCTYPE svg PUBLIC "-//W3C//DTD SVG 1.1//EN" "http://www.w3.org/Graphics/SVG/1.1/DTD/svg11.dtd" [
	<!ENTITY ns_flows "http://ns.adobe.com/Flows/1.0/">
]>
<svg version="1.1"
	 xmlns="http://www.w3.org/2000/svg" xmlns:xlink="http://www.w3.org/1999/xlink" xmlns:a="http://ns.adobe.com/AdobeSVGViewerExtensions/3.0/"
	 x="0px" y="0px" width="557px" height="345px" viewBox="0 0 557 345" overflow="visible" enable-background="new 0 0 557 345"
	 xml:space="preserve">
<defs>
</defs>
<path fill="#333333" d="M44.106,344.531l0.249-1.069c0.283-0.01,0.669-0.041,1.157-0.095s0.864-0.125,1.128-0.213
	c0.381-0.127,0.671-0.319,0.872-0.578s0.339-0.56,0.417-0.901l3.359-14.531c0.049-0.205,0.083-0.376,0.103-0.513
	s0.029-0.239,0.029-0.308c0-0.41-0.227-0.729-0.681-0.96c-0.454-0.229-1.15-0.412-2.087-0.549l0.249-1.069h11.535l-0.249,1.069
	c-0.312,0.02-0.713,0.066-1.201,0.139c-0.488,0.074-0.854,0.149-1.099,0.228c-0.4,0.127-0.696,0.325-0.886,0.593
	c-0.19,0.27-0.325,0.57-0.403,0.904l-3.362,14.544c-0.039,0.165-0.071,0.321-0.095,0.468s-0.037,0.259-0.037,0.337
	c0,0.488,0.227,0.827,0.681,1.019c0.454,0.189,1.155,0.329,2.102,0.417l-0.249,1.069H44.106z"/>
<path fill="#333333" d="M217,344.531l0.249-1.069c0.283-0.01,0.669-0.041,1.157-0.095s0.864-0.125,1.128-0.213
	c0.381-0.127,0.671-0.319,0.872-0.578s0.339-0.56,0.417-0.901l3.359-14.531c0.049-0.205,0.083-0.376,0.103-0.513
	s0.029-0.239,0.029-0.308c0-0.41-0.227-0.729-0.681-0.96c-0.454-0.229-1.15-0.412-2.087-0.549l0.249-1.069h11.535l-0.249,1.069
	c-0.312,0.02-0.713,0.066-1.201,0.139c-0.488,0.074-0.854,0.149-1.099,0.228c-0.4,0.127-0.696,0.325-0.886,0.593
	c-0.19,0.27-0.325,0.57-0.403,0.904l-3.362,14.544c-0.039,0.165-0.071,0.321-0.095,0.468s-0.037,0.259-0.037,0.337
	c0,0.488,0.227,0.827,0.681,1.019c0.454,0.189,1.155,0.329,2.102,0.417l-0.249,1.069H217z"/>
<path fill="#333333" d="M257.591,324.814c-0.303,0.029-0.61,0.096-0.923,0.197c-0.312,0.104-0.654,0.242-1.025,0.418
	c-0.469,0.225-0.85,0.479-1.143,0.762s-0.61,0.674-0.952,1.172c-0.508,0.742-1.132,1.688-1.875,2.834
	c-0.742,1.148-1.738,2.674-2.987,4.578c-1.279,1.963-2.426,3.733-3.442,5.311c-1.015,1.577-2.016,3.137-3.002,4.68h-2.947
	c-0.762-4.326-1.406-7.954-1.934-10.884s-0.933-5.132-1.216-6.606c-0.117-0.527-0.266-0.916-0.447-1.164
	c-0.181-0.25-0.442-0.486-0.784-0.711c-0.273-0.176-0.532-0.305-0.776-0.389c-0.244-0.082-0.557-0.148-0.938-0.197l0.249-1.069
	h11.031l-0.264,1.069c-0.801,0.088-1.396,0.179-1.787,0.271s-0.679,0.188-0.864,0.285c-0.176,0.088-0.273,0.19-0.293,0.308
	s-0.029,0.22-0.029,0.308c0,0.215,0.02,0.435,0.059,0.659s0.088,0.532,0.146,0.922c0.186,1.151,0.464,2.707,0.836,4.668
	c0.371,1.961,0.821,4.474,1.349,7.536c1.287-2.028,2.476-3.919,3.568-5.67c1.092-1.75,2.135-3.431,3.129-5.04
	c0.419-0.683,0.783-1.322,1.091-1.918s0.462-1.001,0.462-1.216c0-0.293-0.251-0.537-0.755-0.732s-1.229-0.322-2.176-0.381
	l0.264-1.069h8.636L257.591,324.814z"/>
<path fill="#333333" d="M339.736,324.814c-0.303,0.029-0.61,0.096-0.923,0.197c-0.312,0.104-0.654,0.242-1.025,0.418
	c-0.469,0.225-0.85,0.479-1.143,0.762s-0.61,0.674-0.952,1.172c-0.508,0.742-1.132,1.688-1.875,2.834
	c-0.742,1.148-1.738,2.674-2.987,4.578c-1.279,1.963-2.426,3.733-3.442,5.311c-1.015,1.577-2.016,3.137-3.002,4.68h-2.947
	c-0.762-4.326-1.406-7.954-1.934-10.884s-0.933-5.132-1.216-6.606c-0.117-0.527-0.266-0.916-0.447-1.164
	c-0.181-0.25-0.442-0.486-0.784-0.711c-0.273-0.176-0.532-0.305-0.776-0.389c-0.244-0.082-0.557-0.148-0.938-0.197l0.249-1.069
	h11.031l-0.264,1.069c-0.801,0.088-1.396,0.179-1.787,0.271s-0.679,0.188-0.864,0.285c-0.176,0.088-0.273,0.19-0.293,0.308
	s-0.029,0.22-0.029,0.308c0,0.215,0.02,0.435,0.059,0.659s0.088,0.532,0.146,0.922c0.186,1.151,0.464,2.707,0.836,4.668
	c0.371,1.961,0.821,4.474,1.349,7.536c1.287-2.028,2.476-3.919,3.568-5.67c1.092-1.75,2.135-3.431,3.129-5.04
	c0.419-0.683,0.783-1.322,1.091-1.918s0.462-1.001,0.462-1.216c0-0.293-0.251-0.537-0.755-0.732s-1.229-0.322-2.176-0.381
	l0.264-1.069H340L339.736,324.814z"/>
<path fill="#333333" d="M419.766,333.311c0,1.377-0.232,2.773-0.696,4.189s-1.116,2.671-1.956,3.765
	c-0.996,1.279-2.1,2.222-3.311,2.827S411.333,345,410.024,345c-1.738,0-3.12-0.406-4.146-1.217c-1.025-0.812-1.538-1.976-1.538-3.49
	c0-0.47,0.078-0.973,0.234-1.511s0.352-1.168,0.586-1.892c0.195-0.616,0.378-1.225,0.549-1.826c0.171-0.601,0.256-1.171,0.256-1.708
	c0-0.528-0.117-0.904-0.352-1.13c-0.234-0.225-0.654-0.337-1.26-0.337c-0.312,0-0.632,0.049-0.959,0.146s-0.608,0.19-0.842,0.278
	l0.322-1.318c0.791-0.322,1.547-0.598,2.27-0.828c0.723-0.229,1.406-0.344,2.05-0.344c1.162,0,2.057,0.291,2.687,0.873
	c0.63,0.581,0.945,1.303,0.945,2.163c0,0.635-0.085,1.31-0.256,2.023c-0.17,0.714-0.349,1.354-0.534,1.921
	c-0.166,0.509-0.339,1.093-0.52,1.753c-0.181,0.66-0.271,1.186-0.271,1.576c0,0.831,0.2,1.496,0.601,1.994
	c0.401,0.499,1.045,0.748,1.934,0.748c1.329,0,2.481-0.495,3.458-1.487c0.977-0.99,1.465-2.326,1.465-4.006
	c0-0.166-0.01-0.347-0.029-0.542s-0.059-0.415-0.117-0.659c-0.107-0.225-0.317-0.464-0.63-0.718s-0.576-0.488-0.791-0.703
	c-0.283-0.283-0.532-0.617-0.747-1.003s-0.322-0.887-0.322-1.502c0-0.518,0.1-0.938,0.3-1.26s0.442-0.586,0.725-0.791
	c0.234-0.166,0.515-0.298,0.842-0.396s0.632-0.146,0.916-0.146c0.908,0,1.621,0.325,2.139,0.974
	C419.507,331.287,419.766,332.178,419.766,333.311z"/>
<path fill="#333333" d="M430.869,342.437l-0.322,1.318c-0.967,0.381-1.738,0.672-2.314,0.872c-0.576,0.199-1.245,0.3-2.007,0.3
	c-1.172,0-2.083-0.286-2.732-0.856c-0.649-0.572-0.974-1.297-0.974-2.176c0-0.342,0.024-0.69,0.073-1.047s0.127-0.76,0.234-1.209
	l1.209-4.277c0.108-0.41,0.199-0.799,0.272-1.164c0.073-0.367,0.11-0.701,0.11-1.004c0-0.547-0.113-0.928-0.338-1.143
	s-0.656-0.322-1.292-0.322c-0.313,0-0.634,0.049-0.962,0.146s-0.61,0.19-0.845,0.278l0.323-1.318
	c0.792-0.322,1.549-0.598,2.273-0.827s1.408-0.345,2.053-0.345c1.164,0,2.061,0.281,2.691,0.843s0.946,1.291,0.946,2.189
	c0,0.186-0.022,0.513-0.066,0.981s-0.125,0.898-0.242,1.289l-1.205,4.263c-0.098,0.342-0.186,0.732-0.265,1.172
	c-0.078,0.439-0.117,0.771-0.117,0.996c0,0.566,0.126,0.952,0.38,1.157c0.254,0.205,0.692,0.308,1.317,0.308
	c0.292,0,0.624-0.051,0.995-0.154C430.435,342.605,430.703,342.515,430.869,342.437z M431.177,324.551
	c0,0.742-0.281,1.375-0.842,1.896c-0.562,0.523-1.238,0.784-2.029,0.784s-1.47-0.261-2.036-0.784
	c-0.566-0.521-0.85-1.154-0.85-1.896s0.283-1.377,0.85-1.904s1.245-0.791,2.036-0.791s1.467,0.264,2.029,0.791
	S431.177,323.809,431.177,324.551z"/>
<path fill="#333333" d="M485.986,337.512c0,0.984-0.188,1.926-0.562,2.824s-0.906,1.68-1.594,2.344
	c-0.742,0.711-1.611,1.26-2.607,1.646s-2.115,0.58-3.357,0.58c-1.664,0-3.008-0.443-4.031-1.33s-1.535-2.096-1.535-3.627
	c0-1.039,0.193-2.004,0.58-2.895s0.928-1.668,1.623-2.332c0.688-0.648,1.531-1.162,2.531-1.541s2.082-0.568,3.246-0.568
	c1.766,0,3.158,0.432,4.178,1.295S485.986,335.973,485.986,337.512z M481.861,336.188c0-0.914-0.154-1.586-0.463-2.016
	s-0.756-0.645-1.342-0.645c-0.602,0-1.152,0.24-1.652,0.721s-0.906,1.186-1.219,2.115c-0.273,0.773-0.469,1.611-0.586,2.514
	s-0.176,1.709-0.176,2.42c0,0.945,0.156,1.631,0.469,2.057s0.766,0.639,1.359,0.639c0.641,0,1.195-0.262,1.664-0.785
	s0.84-1.168,1.113-1.934c0.273-0.75,0.48-1.58,0.621-2.49S481.861,337.008,481.861,336.188z"/>
<path fill="#333333" d="M491.553,344.836c-0.938,0-1.688-0.229-2.25-0.686s-0.844-1.037-0.844-1.74c0-0.289,0.02-0.562,0.059-0.82
	s0.102-0.59,0.188-0.996l1.453-6.234h-2.144l0.281-1.207h2.188l0.848-3.551h3.795l-0.824,3.551h3.181l-0.281,1.207h-3.164
	l-1.428,6.234c-0.055,0.219-0.108,0.484-0.158,0.797c-0.051,0.312-0.076,0.516-0.076,0.609c0,0.445,0.123,0.754,0.369,0.926
	s0.623,0.258,1.131,0.258c0.242,0,0.576-0.047,1.001-0.141c0.425-0.094,0.724-0.172,0.896-0.234l-0.258,1.055
	c-0.688,0.305-1.377,0.543-2.068,0.715S492.123,344.836,491.553,344.836z"/>
<path fill="#333333" d="M512.646,342.762l-0.258,1.031c-0.773,0.305-1.39,0.537-1.85,0.697c-0.461,0.16-0.996,0.24-1.605,0.24
	c-0.929,0-1.652-0.232-2.172-0.697s-0.779-1.041-0.779-1.729c0-0.219,0.009-0.461,0.029-0.727s0.088-0.629,0.204-1.09l0.839-3.117
	c0.085-0.336,0.149-0.639,0.192-0.908c0.042-0.27,0.064-0.49,0.064-0.662c0-0.375-0.09-0.668-0.27-0.879
	c-0.179-0.211-0.483-0.316-0.912-0.316c-0.265,0-0.644,0.104-1.135,0.311s-1.041,0.592-1.649,1.154l-1.944,8.461h-3.873
	l3.448-14.918c0.031-0.133,0.055-0.258,0.07-0.375s0.023-0.215,0.023-0.293c0-0.281-0.047-0.504-0.141-0.668
	c-0.094-0.164-0.235-0.297-0.423-0.398c-0.188-0.102-0.403-0.172-0.645-0.211c-0.243-0.039-0.524-0.074-0.845-0.105l0.211-0.867
	l6.171-0.305l0.129,0.188l-1.875,8.109h0.082c0.727-0.641,1.481-1.143,2.263-1.506c0.781-0.363,1.622-0.545,2.521-0.545
	c0.867,0,1.546,0.238,2.035,0.715c0.488,0.477,0.732,1.055,0.732,1.734c0,0.18-0.014,0.432-0.041,0.756s-0.092,0.67-0.193,1.037
	l-0.891,3.293c-0.078,0.273-0.148,0.586-0.212,0.938c-0.062,0.352-0.094,0.617-0.094,0.797c0,0.453,0.1,0.766,0.299,0.938
	s0.55,0.258,1.05,0.258c0.234,0,0.5-0.041,0.797-0.123S512.514,342.824,512.646,342.762z"/>
<path fill="#333333" d="M519.385,344.918c-0.938,0-1.76-0.127-2.467-0.381s-1.291-0.607-1.752-1.061
	c-0.453-0.453-0.793-0.98-1.02-1.582s-0.34-1.266-0.34-1.992c0-0.922,0.172-1.816,0.516-2.684s0.855-1.648,1.535-2.344
	c0.641-0.664,1.453-1.203,2.438-1.617s2.07-0.621,3.258-0.621c1.398,0,2.463,0.223,3.193,0.668s1.096,1.113,1.096,2.004
	c0,0.852-0.316,1.584-0.949,2.197s-1.492,1.068-2.578,1.365c-0.859,0.258-1.592,0.441-2.197,0.551s-1.346,0.211-2.221,0.305
	c0.016,0.344,0.062,0.73,0.141,1.16s0.195,0.797,0.352,1.102c0.188,0.352,0.453,0.631,0.797,0.838s0.781,0.311,1.312,0.311
	c0.922,0,1.705-0.178,2.35-0.533s1.26-0.92,1.846-1.693l0.855,0.715c-0.703,1-1.604,1.799-2.701,2.396
	S520.596,344.918,519.385,344.918z M522.033,335.637c0-0.664-0.121-1.174-0.363-1.529s-0.578-0.533-1.008-0.533
	c-0.602,0-1.17,0.49-1.705,1.471s-0.877,2.221-1.025,3.721c0.461-0.055,0.918-0.125,1.371-0.211s0.812-0.188,1.078-0.305
	c0.586-0.258,1.008-0.59,1.266-0.996S522.033,336.309,522.033,335.637z"/>
<path fill="#333333" d="M539.318,335.074c0,0.352-0.051,0.691-0.152,1.02s-0.254,0.609-0.457,0.844
	c-0.227,0.266-0.465,0.463-0.715,0.592s-0.602,0.193-1.055,0.193c-0.586,0-1.047-0.145-1.383-0.434s-0.504-0.613-0.504-0.973
	c0-0.336,0.049-0.625,0.146-0.867s0.252-0.609,0.463-1.102c-0.524,0.219-0.975,0.486-1.353,0.803s-0.739,0.678-1.086,1.084
	l-1.851,8.297h-3.867l1.618-7.207c0.047-0.219,0.106-0.504,0.182-0.855c0.073-0.352,0.111-0.645,0.111-0.879
	c0-0.453-0.088-0.762-0.264-0.926s-0.515-0.246-1.015-0.246c-0.25,0-0.506,0.039-0.768,0.117s-0.486,0.152-0.674,0.223l0.258-1.055
	c0.632-0.258,1.236-0.479,1.814-0.662c0.577-0.184,1.123-0.275,1.639-0.275c0.92,0,1.609,0.182,2.065,0.545s0.759,0.873,0.907,1.529
	h0.082c0.774-0.82,1.432-1.393,1.972-1.717s1.118-0.486,1.736-0.486c0.665,0,1.188,0.209,1.572,0.627
	S539.318,334.285,539.318,335.074z"/>
<rect fill="#333333" width="3" height="311.855"/>
<rect x="0.002" y="308.855" fill="#333333" width="557.333" height="3"/>
<rect x="30" y="300.637" fill="#C82506" width="53" height="8.438"/>
<rect x="120" y="279.855" fill="#F3901A" width="53" height="29"/>
<rect x="210" y="38.855" fill="#008F2C" width="53" height="270"/>
<rect x="300" y="301.23" fill="#0B24FB" width="53" height="8.25"/>
<rect x="391" y="172.855" fill="#A653DD" width="53" height="136"/>
<rect x="482" y="293.855" fill="#A6A8AB" width="53" height="15"/>
<path fill="#333333" d="M143.888,342.581l-0.322,1.318c-0.967,0.381-1.738,0.672-2.314,0.872c-0.576,0.199-1.245,0.3-2.007,0.3
	c-1.172,0-2.083-0.286-2.732-0.856c-0.649-0.572-0.974-1.297-0.974-2.176c0-0.342,0.024-0.69,0.073-1.047s0.127-0.76,0.234-1.209
	l1.209-4.277c0.108-0.41,0.199-0.799,0.272-1.164c0.073-0.367,0.11-0.701,0.11-1.004c0-0.547-0.113-0.928-0.338-1.143
	s-0.656-0.322-1.292-0.322c-0.313,0-0.634,0.049-0.962,0.146s-0.61,0.19-0.845,0.278l0.323-1.318
	c0.792-0.322,1.549-0.598,2.273-0.827s1.408-0.345,2.053-0.345c1.164,0,2.061,0.281,2.691,0.843s0.946,1.291,0.946,2.189
	c0,0.186-0.022,0.513-0.066,0.981s-0.125,0.898-0.242,1.289l-1.205,4.263c-0.098,0.342-0.186,0.732-0.265,1.172
	c-0.078,0.439-0.117,0.771-0.117,0.996c0,0.566,0.126,0.952,0.38,1.157c0.254,0.205,0.692,0.308,1.317,0.308
	c0.292,0,0.624-0.051,0.995-0.154C143.454,342.75,143.722,342.659,143.888,342.581z M144.195,324.695
	c0,0.742-0.281,1.375-0.842,1.896c-0.562,0.523-1.238,0.784-2.029,0.784s-1.47-0.261-2.036-0.784
	c-0.566-0.521-0.85-1.154-0.85-1.896s0.283-1.377,0.85-1.904s1.245-0.791,2.036-0.791s1.467,0.264,2.029,0.791
	S144.195,323.953,144.195,324.695z"/>
<path fill="#333333" d="M154.859,342.581l-0.322,1.318c-0.967,0.381-1.738,0.672-2.314,0.872c-0.576,0.199-1.245,0.3-2.007,0.3
	c-1.172,0-2.083-0.286-2.732-0.856c-0.649-0.572-0.974-1.297-0.974-2.176c0-0.342,0.024-0.69,0.073-1.047s0.127-0.76,0.234-1.209
	l1.209-4.277c0.108-0.41,0.199-0.799,0.272-1.164c0.073-0.367,0.11-0.701,0.11-1.004c0-0.547-0.113-0.928-0.338-1.143
	s-0.656-0.322-1.292-0.322c-0.313,0-0.634,0.049-0.962,0.146s-0.61,0.19-0.845,0.278l0.323-1.318
	c0.792-0.322,1.549-0.598,2.273-0.827s1.408-0.345,2.053-0.345c1.164,0,2.061,0.281,2.691,0.843s0.946,1.291,0.946,2.189
	c0,0.186-0.022,0.513-0.066,0.981s-0.125,0.898-0.242,1.289l-1.205,4.263c-0.098,0.342-0.186,0.732-0.265,1.172
	c-0.078,0.439-0.117,0.771-0.117,0.996c0,0.566,0.126,0.952,0.38,1.157c0.254,0.205,0.692,0.308,1.317,0.308
	c0.292,0,0.624-0.051,0.995-0.154C154.425,342.75,154.693,342.659,154.859,342.581z M155.167,324.695
	c0,0.742-0.281,1.375-0.842,1.896c-0.562,0.523-1.238,0.784-2.029,0.784s-1.47-0.261-2.036-0.784
	c-0.566-0.521-0.85-1.154-0.85-1.896s0.283-1.377,0.85-1.904s1.245-0.791,2.036-0.791s1.467,0.264,2.029,0.791
	S155.167,323.953,155.167,324.695z"/>
<path d="M39.258,286.399l-14.648-7.324v-2.036l14.648-7.324v2.751l-11.526,5.6l11.526,5.583V286.399z"/>
<path d="M64.116,286.487H52.031v-1.113c0.293-0.02,0.759-0.068,1.399-0.146s1.077-0.156,1.311-0.234
	c0.293-0.098,0.522-0.264,0.688-0.498s0.249-0.557,0.249-0.967v-9.287h-3.706v-1.392h0.806c0.85,0,1.584-0.093,2.205-0.278
	s1.135-0.41,1.545-0.674c0.42-0.273,0.764-0.557,1.033-0.85s0.481-0.552,0.637-0.776h2.578c-0.029,0.635-0.059,1.377-0.088,2.227
	s-0.044,1.611-0.044,2.285v8.584c0,0.352,0.076,0.657,0.227,0.915c0.151,0.26,0.369,0.457,0.652,0.594
	c0.254,0.117,0.679,0.225,1.274,0.322s1.035,0.156,1.318,0.176V286.487z"/>
<path d="M77.695,270.579c0,1.631-0.549,2.951-1.648,3.963c-1.099,1.01-2.449,1.516-4.05,1.516c-1.621,0-2.979-0.506-4.072-1.516
	c-1.094-1.012-1.641-2.332-1.641-3.963s0.547-2.951,1.641-3.963c1.094-1.01,2.446-1.516,4.058-1.516s2.966,0.506,4.065,1.516
	C77.146,267.628,77.695,268.948,77.695,270.579z M88.008,265.569l-17.322,20.918h-2.395l17.284-20.918H88.008z M73.813,270.608
	c0-1.348-0.132-2.424-0.396-3.23c-0.264-0.805-0.747-1.208-1.45-1.208c-0.635,0-1.094,0.379-1.377,1.136s-0.425,1.809-0.425,3.156
	c0,1.406,0.129,2.512,0.388,3.318c0.259,0.805,0.75,1.208,1.472,1.208c0.625,0,1.079-0.378,1.362-1.136
	C73.672,273.097,73.813,272.015,73.813,270.608z M90,281.521c0,1.631-0.549,2.952-1.648,3.962c-1.099,1.012-2.449,1.517-4.05,1.517
	c-1.621,0-2.979-0.505-4.072-1.517c-1.094-1.01-1.641-2.331-1.641-3.962s0.547-2.952,1.641-3.962
	c1.094-1.012,2.446-1.517,4.058-1.517s2.966,0.505,4.065,1.517C89.451,278.569,90,279.891,90,281.521z M86.118,281.551
	c0-1.348-0.132-2.425-0.396-3.229c-0.264-0.807-0.747-1.209-1.45-1.209c-0.635,0-1.094,0.379-1.377,1.135
	c-0.283,0.758-0.425,1.81-0.425,3.157c0,1.406,0.129,2.513,0.388,3.317c0.259,0.807,0.75,1.209,1.472,1.209
	c0.625,0,1.079-0.378,1.362-1.135S86.118,282.957,86.118,281.551z"/>
<path d="M142.914,259.353h-3.149v5.552h-4.907v-5.552h-9.697v-2.695l10.518-13.315h4.087v12.92h3.149V259.353z M134.857,256.262
	v-9.424l-7.443,9.424H134.857z"/>
<path d="M156.669,243.591c0,1.631-0.549,2.951-1.648,3.963c-1.099,1.01-2.449,1.516-4.05,1.516c-1.621,0-2.979-0.506-4.072-1.516
	c-1.094-1.012-1.641-2.332-1.641-3.963s0.547-2.951,1.641-3.963c1.094-1.01,2.446-1.516,4.058-1.516s2.966,0.506,4.065,1.516
	C156.12,240.64,156.669,241.96,156.669,243.591z M166.981,238.581l-17.322,20.918h-2.395l17.284-20.918H166.981z M152.787,243.62
	c0-1.348-0.132-2.424-0.396-3.23c-0.264-0.805-0.747-1.208-1.45-1.208c-0.635,0-1.094,0.379-1.377,1.136s-0.425,1.809-0.425,3.156
	c0,1.406,0.129,2.512,0.388,3.318c0.259,0.805,0.75,1.208,1.472,1.208c0.625,0,1.079-0.378,1.362-1.136
	C152.646,246.108,152.787,245.026,152.787,243.62z M168.974,254.533c0,1.631-0.549,2.952-1.648,3.962
	c-1.099,1.012-2.449,1.517-4.05,1.517c-1.621,0-2.979-0.505-4.072-1.517c-1.094-1.01-1.641-2.331-1.641-3.962
	s0.547-2.952,1.641-3.962c1.094-1.012,2.446-1.517,4.058-1.517s2.966,0.505,4.065,1.517
	C168.424,251.581,168.974,252.902,168.974,254.533z M165.092,254.562c0-1.348-0.132-2.425-0.396-3.229
	c-0.264-0.807-0.747-1.209-1.45-1.209c-0.635,0-1.094,0.379-1.377,1.135c-0.283,0.758-0.425,1.81-0.425,3.157
	c0,1.406,0.129,2.513,0.388,3.317c0.259,0.807,0.75,1.209,1.472,1.209c0.625,0,1.079-0.378,1.362-1.135
	S165.092,255.969,165.092,254.562z"/>
<path d="M223.494,17.363c0.732,0.488,1.348,1.146,1.846,1.971s0.747,1.848,0.747,3.068c0,2.148-0.833,3.904-2.498,5.266
	c-1.665,1.363-3.792,2.044-6.379,2.044c-2.002,0-3.672-0.43-5.01-1.289s-2.007-1.875-2.007-3.047c0-0.693,0.222-1.279,0.667-1.758
	s1.038-0.718,1.78-0.718c0.771,0,1.404,0.208,1.897,0.623s0.74,0.969,0.74,1.662c0,0.488-0.083,1.021-0.249,1.597
	s-0.303,1.016-0.41,1.318c0.234,0.088,0.508,0.153,0.82,0.198c0.312,0.043,0.605,0.065,0.879,0.065c0.557,0,1.104-0.124,1.641-0.374
	c0.537-0.248,0.996-0.612,1.377-1.091c0.439-0.547,0.771-1.194,0.996-1.94c0.225-0.748,0.337-1.595,0.337-2.542
	c0-1.377-0.369-2.507-1.107-3.392c-0.738-0.883-1.694-1.325-2.868-1.325c-0.91,0-1.672,0.183-2.289,0.55
	c-0.616,0.365-1.168,0.847-1.657,1.442l-1.132-0.381l1.421-10.781h12.378v4.043h-11.315l-0.607,4.833
	c0.527-0.331,1.206-0.648,2.036-0.951s1.807-0.454,2.929-0.454c0.869,0,1.726,0.095,2.571,0.286
	C221.871,16.477,222.694,16.836,223.494,17.363z"/>
<path d="M245.276,16.865c0,3.555-1.201,6.463-3.604,8.723c-2.402,2.261-5.684,3.665-9.844,4.212l-0.337-1.45l1.553-0.264
	c1.201-0.342,2.197-0.781,2.988-1.318s1.44-1.162,1.948-1.875c0.527-0.732,0.928-1.509,1.201-2.329s0.479-1.665,0.615-2.534
	c-0.859,0.752-1.692,1.248-2.498,1.486c-0.806,0.24-1.711,0.359-2.717,0.359c-0.84,0-1.626-0.166-2.358-0.498
	s-1.367-0.786-1.904-1.362c-0.547-0.586-0.974-1.291-1.282-2.116s-0.461-1.722-0.461-2.688c0-2.061,0.791-3.767,2.373-5.12
	c1.582-1.352,3.56-2.028,5.933-2.028c2.568,0,4.609,0.796,6.123,2.388S245.276,14.18,245.276,16.865z M239.93,17.671
	c0-0.137,0.005-0.303,0.015-0.498s0.015-0.386,0.015-0.571c0-2.344-0.281-4.139-0.842-5.383c-0.562-1.246-1.292-1.868-2.19-1.868
	c-0.869,0-1.575,0.474-2.117,1.421s-0.813,2.314-0.813,4.102c0,1.562,0.276,2.808,0.828,3.735S236.102,20,237,20
	c0.566,0,1.089-0.112,1.567-0.337s0.923-0.645,1.333-1.26c0-0.049,0.005-0.134,0.015-0.257
	C239.925,18.025,239.93,17.866,239.93,17.671z"/>
<path d="M259.529,8.398c0,1.631-0.549,2.951-1.648,3.963c-1.099,1.01-2.449,1.516-4.05,1.516c-1.621,0-2.979-0.506-4.072-1.516
	c-1.094-1.012-1.641-2.332-1.641-3.963s0.547-2.951,1.641-3.963c1.094-1.01,2.446-1.516,4.058-1.516s2.966,0.506,4.065,1.516
	C258.98,5.447,259.529,6.768,259.529,8.398z M269.842,3.389L252.52,24.307h-2.395l17.284-20.918H269.842z M255.647,8.428
	c0-1.348-0.132-2.424-0.396-3.23c-0.264-0.805-0.747-1.208-1.45-1.208c-0.635,0-1.094,0.379-1.377,1.136S252,6.934,252,8.281
	c0,1.406,0.129,2.512,0.388,3.318c0.259,0.805,0.75,1.208,1.472,1.208c0.625,0,1.079-0.378,1.362-1.136
	C255.506,10.916,255.647,9.834,255.647,8.428z M271.834,19.341c0,1.631-0.549,2.952-1.648,3.962
	c-1.099,1.012-2.449,1.517-4.05,1.517c-1.621,0-2.979-0.505-4.072-1.517c-1.094-1.01-1.641-2.331-1.641-3.962
	s0.547-2.952,1.641-3.962c1.094-1.012,2.446-1.517,4.058-1.517s2.966,0.505,4.065,1.517
	C271.285,16.389,271.834,17.71,271.834,19.341z M267.952,19.37c0-1.348-0.132-2.425-0.396-3.229
	c-0.264-0.807-0.747-1.209-1.45-1.209c-0.635,0-1.094,0.379-1.377,1.135c-0.283,0.758-0.425,1.81-0.425,3.157
	c0,1.406,0.129,2.513,0.388,3.317c0.259,0.807,0.75,1.209,1.472,1.209c0.625,0,1.079-0.378,1.362-1.135
	S267.952,20.776,267.952,19.37z"/>
<path d="M307.258,285.128l-14.648-7.324v-2.036l14.648-7.324v2.751l-11.526,5.6l11.526,5.583V285.128z"/>
<path d="M332.116,285.216h-12.085v-1.113c0.293-0.02,0.759-0.068,1.399-0.146s1.077-0.156,1.311-0.234
	c0.293-0.098,0.522-0.264,0.688-0.498s0.249-0.557,0.249-0.967v-9.287h-3.706v-1.392h0.806c0.85,0,1.584-0.093,2.205-0.278
	s1.135-0.41,1.545-0.674c0.42-0.273,0.764-0.557,1.033-0.85s0.481-0.552,0.637-0.776h2.578c-0.029,0.635-0.059,1.377-0.088,2.227
	s-0.044,1.611-0.044,2.285v8.584c0,0.352,0.076,0.657,0.227,0.915c0.151,0.26,0.369,0.457,0.652,0.594
	c0.254,0.117,0.679,0.225,1.274,0.322s1.035,0.156,1.318,0.176V285.216z"/>
<path d="M345.695,269.308c0,1.631-0.549,2.951-1.648,3.963c-1.099,1.01-2.449,1.516-4.05,1.516c-1.621,0-2.979-0.506-4.072-1.516
	c-1.094-1.012-1.641-2.332-1.641-3.963s0.547-2.951,1.641-3.963c1.094-1.01,2.446-1.516,4.058-1.516s2.966,0.506,4.065,1.516
	C345.146,266.356,345.695,267.677,345.695,269.308z M356.008,264.298l-17.322,20.918h-2.395l17.284-20.918H356.008z
	 M341.813,269.337c0-1.348-0.132-2.424-0.396-3.23c-0.264-0.805-0.747-1.208-1.45-1.208c-0.635,0-1.094,0.379-1.377,1.136
	s-0.425,1.809-0.425,3.156c0,1.406,0.129,2.512,0.388,3.318c0.259,0.805,0.75,1.208,1.472,1.208c0.625,0,1.079-0.378,1.362-1.136
	C341.672,271.825,341.813,270.743,341.813,269.337z M358,280.25c0,1.631-0.549,2.952-1.648,3.962
	c-1.099,1.012-2.449,1.517-4.05,1.517c-1.621,0-2.979-0.505-4.072-1.517c-1.094-1.01-1.641-2.331-1.641-3.962
	s0.547-2.952,1.641-3.962c1.094-1.012,2.446-1.517,4.058-1.517s2.966,0.505,4.065,1.517C357.451,277.298,358,278.619,358,280.25z
	 M354.118,280.279c0-1.348-0.132-2.425-0.396-3.229c-0.264-0.807-0.747-1.209-1.45-1.209c-0.635,0-1.094,0.379-1.377,1.135
	c-0.283,0.758-0.425,1.81-0.425,3.157c0,1.406,0.129,2.513,0.388,3.317c0.259,0.807,0.75,1.209,1.472,1.209
	c0.625,0,1.079-0.378,1.362-1.135S354.118,281.686,354.118,280.279z"/>
<path d="M400.909,148.673c0.586,0.391,1.074,0.911,1.465,1.561s0.586,1.447,0.586,2.395c0,1.826-0.874,3.345-2.622,4.556
	S396.339,159,393.585,159c-1.973,0-3.647-0.423-5.024-1.267c-1.377-0.846-2.065-1.883-2.065-3.113c0-0.693,0.222-1.279,0.667-1.758
	s1.038-0.718,1.78-0.718c0.771,0,1.404,0.208,1.897,0.622c0.493,0.416,0.74,0.97,0.74,1.663c0,0.479-0.085,1.013-0.256,1.604
	c-0.171,0.59-0.305,1.027-0.403,1.311c0.215,0.098,0.493,0.173,0.835,0.227s0.742,0.081,1.201,0.081
	c0.566,0,1.121-0.093,1.663-0.278s1.013-0.488,1.414-0.908c0.42-0.439,0.745-0.955,0.974-1.545c0.229-0.592,0.344-1.375,0.344-2.352
	c0-0.557-0.051-1.084-0.154-1.582s-0.291-0.933-0.564-1.304s-0.647-0.661-1.121-0.872c-0.474-0.209-1.077-0.314-1.809-0.314h-1.86
	v-1.772h1.318c1.23,0,2.122-0.363,2.673-1.091s0.828-1.839,0.828-3.333c0-1.201-0.266-2.103-0.798-2.702
	c-0.532-0.602-1.301-0.901-2.307-0.901c-0.381,0-0.713,0.022-0.996,0.065c-0.283,0.045-0.571,0.125-0.864,0.242
	c0.107,0.332,0.239,0.796,0.396,1.392s0.234,1.104,0.234,1.523c0,0.693-0.239,1.245-0.718,1.655s-1.104,0.615-1.875,0.615
	c-0.732,0-1.316-0.239-1.75-0.718s-0.652-1.06-0.652-1.743c0-1.211,0.701-2.243,2.102-3.098s3.162-1.282,5.281-1.282
	c1.465,0,2.678,0.171,3.64,0.513s1.721,0.762,2.278,1.26c0.547,0.488,0.925,1.014,1.135,1.574c0.21,0.562,0.315,1.067,0.315,1.517
	c0,0.43-0.09,0.915-0.271,1.458c-0.181,0.541-0.447,1.018-0.798,1.428c-0.43,0.498-0.991,0.928-1.685,1.289s-1.504,0.64-2.432,0.835
	v0.234c0.635,0.039,1.321,0.156,2.058,0.352S400.343,148.292,400.909,148.673z"/>
<path d="M422.94,153.448h-3.149V159h-4.907v-5.552h-9.697v-2.695l10.518-13.315h4.087v12.92h3.149V153.448z M414.884,150.357v-9.424
	l-7.443,9.424H414.884z"/>
<path d="M436.695,137.687c0,1.631-0.549,2.951-1.648,3.963c-1.099,1.01-2.449,1.516-4.05,1.516c-1.621,0-2.979-0.506-4.072-1.516
	c-1.094-1.012-1.641-2.332-1.641-3.963s0.547-2.951,1.641-3.963c1.094-1.01,2.446-1.516,4.058-1.516s2.966,0.506,4.065,1.516
	C436.146,134.735,436.695,136.056,436.695,137.687z M447.008,132.677l-17.322,20.918h-2.395l17.284-20.918H447.008z
	 M432.813,137.716c0-1.348-0.132-2.424-0.396-3.23c-0.264-0.805-0.747-1.208-1.45-1.208c-0.635,0-1.094,0.379-1.377,1.136
	s-0.425,1.809-0.425,3.156c0,1.406,0.129,2.512,0.388,3.318c0.259,0.805,0.75,1.208,1.472,1.208c0.625,0,1.079-0.378,1.362-1.136
	C432.672,140.204,432.813,139.122,432.813,137.716z M449,148.629c0,1.631-0.549,2.952-1.648,3.962
	c-1.099,1.012-2.449,1.517-4.05,1.517c-1.621,0-2.979-0.505-4.072-1.517c-1.094-1.01-1.641-2.331-1.641-3.962
	s0.547-2.952,1.641-3.962c1.094-1.012,2.446-1.517,4.058-1.517s2.966,0.505,4.065,1.517C448.451,145.677,449,146.998,449,148.629z
	 M445.118,148.658c0-1.348-0.132-2.425-0.396-3.229c-0.264-0.807-0.747-1.209-1.45-1.209c-0.635,0-1.094,0.379-1.377,1.135
	c-0.283,0.758-0.425,1.81-0.425,3.157c0,1.406,0.129,2.513,0.388,3.317c0.259,0.807,0.75,1.209,1.472,1.209
	c0.625,0,1.079-0.378,1.362-1.135S445.118,150.064,445.118,148.658z"/>
<path d="M503.093,281.707h-15.879v-2.651c0.694-0.703,1.455-1.345,2.281-1.927c0.827-0.58,1.665-1.096,2.516-1.545
	c0.91-0.479,1.672-0.905,2.289-1.281s1.101-0.77,1.453-1.18c0.352-0.381,0.604-0.796,0.755-1.245s0.228-0.952,0.228-1.509
	c0-1.24-0.294-2.144-0.882-2.71c-0.587-0.566-1.366-0.85-2.336-0.85c-0.304,0-0.59,0.022-0.859,0.065
	c-0.27,0.045-0.551,0.125-0.845,0.242c0.146,0.439,0.288,0.894,0.425,1.362s0.205,0.991,0.205,1.567
	c0,0.693-0.249,1.245-0.747,1.655s-1.133,0.615-1.904,0.615c-0.732,0-1.316-0.239-1.75-0.718s-0.652-1.06-0.652-1.743
	c0-1.191,0.693-2.222,2.08-3.091s3.076-1.304,5.068-1.304c2.305,0,4.167,0.396,5.588,1.187s2.131,2.065,2.131,3.823
	c0,0.908-0.188,1.641-0.564,2.197s-0.93,1.045-1.663,1.465c-0.654,0.381-1.379,0.693-2.175,0.938s-1.648,0.479-2.556,0.703
	c-0.967,0.244-1.809,0.503-2.527,0.776s-1.355,0.601-1.912,0.981v0.161h12.231V281.707z"/>
<path d="M517.141,265.799c0,1.631-0.549,2.951-1.648,3.963c-1.099,1.01-2.449,1.516-4.05,1.516c-1.621,0-2.979-0.506-4.072-1.516
	c-1.094-1.012-1.641-2.332-1.641-3.963s0.547-2.951,1.641-3.963c1.094-1.01,2.446-1.516,4.058-1.516s2.966,0.506,4.065,1.516
	C516.592,262.848,517.141,264.168,517.141,265.799z M527.454,260.789l-17.322,20.918h-2.395l17.284-20.918H527.454z
	 M513.259,265.828c0-1.348-0.132-2.424-0.396-3.23c-0.264-0.805-0.747-1.208-1.45-1.208c-0.635,0-1.094,0.379-1.377,1.136
	s-0.425,1.809-0.425,3.156c0,1.406,0.129,2.512,0.388,3.318c0.259,0.805,0.75,1.208,1.472,1.208c0.625,0,1.079-0.378,1.362-1.136
	C513.118,268.316,513.259,267.234,513.259,265.828z M529.446,276.741c0,1.631-0.549,2.952-1.648,3.962
	c-1.099,1.012-2.449,1.517-4.05,1.517c-1.621,0-2.979-0.505-4.072-1.517c-1.094-1.01-1.641-2.331-1.641-3.962
	s0.547-2.952,1.641-3.962c1.094-1.012,2.446-1.517,4.058-1.517s2.966,0.505,4.065,1.517
	C528.896,273.789,529.446,275.11,529.446,276.741z M525.564,276.771c0-1.348-0.132-2.425-0.396-3.229
	c-0.264-0.807-0.747-1.209-1.45-1.209c-0.635,0-1.094,0.379-1.377,1.135c-0.283,0.758-0.425,1.81-0.425,3.157
	c0,1.406,0.129,2.513,0.388,3.317c0.259,0.807,0.75,1.209,1.472,1.209c0.625,0,1.079-0.378,1.362-1.135
	S525.564,278.177,525.564,276.771z"/>
</svg>
