<?xml version="1.0" encoding="utf-8"?>
<!-- Generator: Adobe Illustrator 15.1.0, SVG Export Plug-In . SVG Version: 6.00 Build 0)  -->
<!DOCTYPE svg PUBLIC "-//W3C//DTD SVG 1.1//EN" "http://www.w3.org/Graphics/SVG/1.1/DTD/svg11.dtd">
<svg version="1.1" id="Layer_1" xmlns="http://www.w3.org/2000/svg" xmlns:xlink="http://www.w3.org/1999/xlink" x="0px" y="0px"
	 width="167.418px" height="31.328px" viewBox="1.408 -41.158 167.418 31.328"
	 enable-background="new 1.408 -41.158 167.418 31.328" xml:space="preserve">
<g>
	<path fill="#333333" d="M6.116-27.914h4.532v-12.98h4.708v30.8h-4.708v-13.552H6.116v13.552H1.408v-30.8h4.708V-27.914z"/>
	<path fill="#333333" d="M32.032-15.55c0,3.813-1.907,5.72-5.72,5.72h-2.508c-3.813,0-5.72-1.907-5.72-5.72v-19.888
		c0-3.812,1.907-5.72,5.72-5.72h2.508c3.813,0,5.72,1.907,5.72,5.72V-15.55z M27.324-35.218c0-1.203-0.587-1.804-1.76-1.804h-0.968
		c-1.203,0-1.804,0.602-1.804,1.804v19.448c0,1.203,0.601,1.804,1.804,1.804h0.968c1.173,0,1.76-0.601,1.76-1.804V-35.218z"/>
	<path fill="#333333" d="M48.62-15.55c0,3.813-1.907,5.72-5.72,5.72h-2.508c-3.813,0-5.72-1.907-5.72-5.72v-19.888
		c0-3.812,1.907-5.72,5.72-5.72h2.508c3.813,0,5.72,1.907,5.72,5.72V-15.55z M43.912-35.218c0-1.203-0.587-1.804-1.76-1.804h-0.968
		c-1.203,0-1.804,0.602-1.804,1.804v19.448c0,1.203,0.601,1.804,1.804,1.804h0.968c1.173,0,1.76-0.601,1.76-1.804V-35.218z"/>
	<path fill="#333333" d="M65.691-10.094h-5.06l-4.576-15.092v15.092h-4.708v-30.8h4.708v14.872l4.884-14.872h4.928l-5.28,15.136
		L65.691-10.094z"/>
	<path fill="#333333" d="M74.976-10.094h-4.708v-26.532h-4.224v-4.268H79.2v4.268h-4.224V-10.094z"/>
	<path fill="#333333" d="M85.756-27.914h4.531v-12.98h4.709v30.8h-4.709v-13.552h-4.531v13.552h-4.708v-30.8h4.708V-27.914z"/>
	<path fill="#333333" d="M97.811-40.894h10.473v4.268h-5.764v8.712h5.543v4.268h-5.543v9.284h5.852v4.268H97.811V-40.894z"/>
	<path fill="#333333" d="M124.738-15.55c0,3.813-1.906,5.72-5.721,5.72h-2.508c-3.812,0-5.719-1.907-5.719-5.72v-19.888
		c0-3.812,1.906-5.72,5.719-5.72h2.508c3.814,0,5.721,1.907,5.721,5.72V-15.55z M120.029-35.218c0-1.203-0.586-1.804-1.76-1.804
		h-0.967c-1.203,0-1.805,0.602-1.805,1.804v19.448c0,1.203,0.602,1.804,1.805,1.804h0.967c1.174,0,1.76-0.601,1.76-1.804V-35.218z"
		/>
	<path fill="#333333" d="M138.246-24.614c0.969,0.264,1.664,0.711,2.09,1.342c0.426,0.631,0.639,1.533,0.639,2.706v10.472h-4.709
		v-10.384c0-1.32-0.66-1.98-1.98-1.98h-2.111v12.364h-4.707v-30.8h7.744c3.812,0,5.719,1.907,5.719,5.72v5.808
		C140.93-26.931,140.035-25.347,138.246-24.614z M136.223-34.954c0-1.173-0.588-1.76-1.76-1.76h-2.289v10.164h2.111
		c1.291,0,1.938-0.63,1.938-1.892V-34.954z"/>
	<path fill="#333333" d="M149.598-27.914l2.771-12.98h4.533l-5.061,20.02v10.78h-4.707v-10.56l-5.061-20.24h4.84L149.598-27.914z"/>
	<path fill="#333333" d="M168.826-40.894v30.8h-4.709v-30.8H168.826z"/>
</g>
</svg>
