<?xml version="1.0" encoding="utf-8"?>
<!-- Generator: Adobe Illustrator 15.1.0, SVG Export Plug-In . SVG Version: 6.00 Build 0)  -->
<!DOCTYPE svg PUBLIC "-//W3C//DTD SVG 1.1//EN" "http://www.w3.org/Graphics/SVG/1.1/DTD/svg11.dtd">
<svg version="1.1" id="Layer_1" xmlns="http://www.w3.org/2000/svg" xmlns:xlink="http://www.w3.org/1999/xlink" x="0px" y="0px"
	 width="100px" height="138.34px" viewBox="35.807 0 100 138.34" enable-background="new 35.807 0 100 138.34" xml:space="preserve"
	>
<g>
	<circle fill="#489DD6" cx="85.807" cy="50" r="50"/>
	<circle fill="#FFFFFF" cx="85.807" cy="50" r="47"/>
	<rect x="77.807" y="42" fill="#489DD6" width="16" height="16"/>
	<rect x="61.807" y="58" fill="#489DD6" width="16" height="16"/>
	<rect x="93.807" y="26" fill="#489DD6" width="16" height="16"/>
	<rect x="93.807" y="42" fill="#F99E5D" width="16" height="16"/>
	<path fill="#2559A8" d="M109.805,74L109.805,74l0.002-16h-16C93.807,66.836,100.969,74,109.805,74z"/>
	<rect x="61.807" y="42" fill="#2559A8" width="16" height="16"/>
	<path fill="#FDD914" d="M77.807,42c0-8.836-7.164-16-16-16v16H77.807z"/>
</g>
<g>
	<path d="M36.697,121.1h1.58v12.54h7.88v1.46h-9.46V121.1z"/>
	<path d="M53.537,135.34c-0.773,0-1.486-0.144-2.14-0.431c-0.653-0.286-1.22-0.673-1.7-1.159c-0.479-0.487-0.854-1.054-1.12-1.7
		s-0.399-1.337-0.399-2.07v-0.04c0-0.733,0.133-1.427,0.399-2.08s0.641-1.227,1.12-1.72c0.48-0.493,1.05-0.883,1.71-1.17
		s1.384-0.43,2.17-0.43c0.773,0,1.49,0.143,2.15,0.43s1.229,0.673,1.71,1.16c0.479,0.486,0.854,1.053,1.12,1.7
		c0.267,0.646,0.399,1.336,0.399,2.069v0.04c0,0.733-0.137,1.427-0.409,2.08c-0.273,0.653-0.65,1.227-1.131,1.72
		c-0.479,0.494-1.053,0.884-1.72,1.17C55.03,135.196,54.311,135.34,53.537,135.34z M53.577,133.96c0.561,0,1.073-0.106,1.54-0.32
		c0.467-0.213,0.867-0.5,1.2-0.86c0.333-0.359,0.593-0.779,0.78-1.26c0.187-0.479,0.279-0.993,0.279-1.54v-0.04
		c0-0.56-0.097-1.083-0.289-1.57c-0.194-0.486-0.464-0.913-0.811-1.279c-0.347-0.367-0.753-0.657-1.22-0.87s-0.974-0.32-1.521-0.32
		c-0.56,0-1.073,0.107-1.54,0.32s-0.863,0.5-1.189,0.86c-0.327,0.359-0.584,0.783-0.771,1.27c-0.187,0.487-0.279,1.004-0.279,1.55
		v0.04c0,0.561,0.096,1.084,0.29,1.57c0.192,0.486,0.46,0.91,0.8,1.27c0.34,0.36,0.743,0.647,1.21,0.86
		C52.524,133.854,53.03,133.96,53.577,133.96z"/>
	<path d="M64.817,135.319c-0.48,0-0.953-0.066-1.42-0.2c-0.467-0.133-0.88-0.336-1.24-0.609s-0.649-0.61-0.87-1.01
		c-0.22-0.4-0.33-0.867-0.33-1.4v-0.04c0-0.56,0.106-1.05,0.32-1.47c0.213-0.42,0.517-0.771,0.91-1.05
		c0.393-0.28,0.859-0.493,1.399-0.641c0.54-0.146,1.137-0.22,1.79-0.22c0.667,0,1.243,0.04,1.73,0.12
		c0.486,0.08,0.963,0.187,1.43,0.319v-0.317c0-0.914-0.267-1.606-0.8-2.076c-0.533-0.471-1.287-0.706-2.26-0.706
		c-0.613,0-1.17,0.067-1.67,0.2c-0.5,0.134-0.99,0.313-1.471,0.54l-0.46-1.268c0.573-0.271,1.153-0.486,1.74-0.649
		c0.587-0.162,1.26-0.243,2.021-0.243c1.466,0,2.58,0.38,3.34,1.14c0.72,0.721,1.08,1.733,1.08,3.04v6.32h-1.521v-1.54
		c-0.359,0.467-0.843,0.877-1.45,1.23C66.48,135.143,65.724,135.319,64.817,135.319z M65.129,134.06
		c0.479,0,0.924-0.066,1.335-0.199c0.412-0.132,0.774-0.321,1.087-0.567c0.312-0.245,0.559-0.537,0.737-0.876
		c0.18-0.338,0.27-0.713,0.27-1.124v-0.955c-0.386-0.106-0.824-0.206-1.315-0.299c-0.492-0.093-1.057-0.14-1.695-0.14
		c-0.956,0-1.697,0.189-2.223,0.567c-0.524,0.379-0.787,0.879-0.787,1.503v0.04c0,0.318,0.07,0.606,0.21,0.865
		c0.139,0.259,0.328,0.475,0.567,0.647c0.239,0.172,0.515,0.305,0.827,0.397C64.454,134.014,64.783,134.06,65.129,134.06z"/>
	<path d="M77.657,135.319c-0.627,0-1.233-0.12-1.819-0.359c-0.587-0.24-1.114-0.591-1.58-1.051c-0.467-0.46-0.841-1.02-1.12-1.68
		c-0.28-0.66-0.42-1.416-0.42-2.27v-0.04c0-0.84,0.14-1.594,0.42-2.261c0.279-0.666,0.653-1.229,1.12-1.689
		c0.466-0.46,0.993-0.813,1.58-1.061c0.586-0.246,1.192-0.369,1.819-0.369c0.48,0,0.921,0.06,1.32,0.18s0.761,0.28,1.08,0.479
		c0.319,0.2,0.61,0.434,0.87,0.7s0.49,0.547,0.689,0.84V120.5h1.541v14.6h-1.541v-2.08c-0.213,0.307-0.449,0.6-0.709,0.88
		c-0.261,0.28-0.551,0.527-0.871,0.74c-0.319,0.214-0.676,0.38-1.069,0.5S78.138,135.319,77.657,135.319z M77.938,133.939
		c0.479,0,0.943-0.097,1.391-0.29c0.446-0.193,0.846-0.467,1.199-0.819c0.354-0.354,0.633-0.773,0.84-1.261
		c0.207-0.486,0.311-1.029,0.311-1.63v-0.04c0-0.6-0.104-1.143-0.311-1.63c-0.207-0.486-0.486-0.903-0.84-1.25
		s-0.753-0.616-1.199-0.81c-0.447-0.193-0.911-0.29-1.391-0.29c-0.507,0-0.98,0.09-1.42,0.27c-0.44,0.18-0.823,0.44-1.15,0.78
		c-0.326,0.34-0.587,0.757-0.779,1.25c-0.194,0.493-0.29,1.054-0.29,1.68v0.04c0,0.613,0.096,1.167,0.29,1.66
		c0.192,0.493,0.456,0.913,0.789,1.26c0.334,0.347,0.721,0.613,1.16,0.8C76.978,133.847,77.444,133.939,77.938,133.939z"/>
	<path d="M86.637,120.8h1.761v1.7h-1.761V120.8z M86.737,124.76h1.54v10.34h-1.54V124.76z"/>
	<path d="M91.857,124.76h1.539v1.8c0.348-0.56,0.801-1.036,1.361-1.43c0.56-0.394,1.286-0.59,2.18-0.59c0.627,0,1.183,0.1,1.67,0.3
		c0.486,0.2,0.9,0.483,1.24,0.85c0.34,0.367,0.6,0.804,0.779,1.311s0.27,1.066,0.27,1.68v6.42h-1.539v-6.027
		c0-0.957-0.247-1.716-0.74-2.274c-0.494-0.559-1.2-0.838-2.12-0.838c-0.44,0-0.851,0.076-1.229,0.229
		c-0.381,0.153-0.711,0.372-0.99,0.658c-0.28,0.286-0.497,0.629-0.65,1.028c-0.153,0.398-0.23,0.838-0.23,1.316v5.907h-1.539V124.76
		z"/>
	<path d="M108.757,138.34c-0.866,0-1.693-0.12-2.479-0.36c-0.787-0.24-1.527-0.6-2.221-1.08l0.7-1.2
		c0.601,0.427,1.227,0.754,1.88,0.98s1.354,0.34,2.1,0.34c1.147,0,2.061-0.31,2.74-0.93c0.681-0.62,1.021-1.537,1.021-2.75v-1.221
		c-0.454,0.601-1.007,1.114-1.66,1.54c-0.653,0.428-1.453,0.641-2.399,0.641c-0.627,0-1.23-0.113-1.811-0.34
		s-1.097-0.551-1.55-0.971c-0.454-0.42-0.817-0.926-1.091-1.52c-0.273-0.593-0.409-1.264-0.409-2.01v-0.04
		c0-0.761,0.136-1.44,0.409-2.04c0.273-0.601,0.637-1.11,1.091-1.53c0.453-0.42,0.974-0.743,1.56-0.97
		c0.587-0.227,1.188-0.34,1.801-0.34c0.479,0,0.923,0.057,1.33,0.17c0.406,0.113,0.772,0.263,1.1,0.449
		c0.326,0.188,0.623,0.407,0.89,0.66c0.267,0.254,0.507,0.521,0.72,0.8v-1.859h1.541v8.54c0,0.8-0.113,1.503-0.34,2.109
		c-0.228,0.607-0.555,1.124-0.98,1.551c-0.467,0.466-1.033,0.812-1.7,1.04C110.33,138.227,109.584,138.34,108.757,138.34z
		 M108.736,132.939c0.494,0,0.967-0.083,1.421-0.25c0.453-0.166,0.856-0.406,1.21-0.72s0.637-0.684,0.85-1.11s0.32-0.899,0.32-1.42
		v-0.04c0-0.533-0.107-1.013-0.32-1.439s-0.496-0.794-0.85-1.101s-0.757-0.543-1.21-0.71c-0.454-0.166-0.927-0.25-1.421-0.25
		c-0.492,0-0.956,0.084-1.389,0.25c-0.434,0.167-0.814,0.4-1.141,0.7s-0.584,0.663-0.77,1.09c-0.188,0.427-0.28,0.907-0.28,1.44
		v0.04c0,0.52,0.097,0.996,0.29,1.43s0.453,0.804,0.779,1.11c0.327,0.307,0.707,0.547,1.141,0.72
		C107.801,132.854,108.257,132.939,108.736,132.939z"/>
	<path d="M123.276,133h1.84v2.1h-1.84V133z"/>
	<path d="M128.176,133h1.84v2.1h-1.84V133z"/>
	<path d="M133.076,133h1.84v2.1h-1.84V133z"/>
</g>
</svg>
