<?xml version="1.0" encoding="utf-8"?>
<!-- Generator: Adobe Illustrator 15.1.0, SVG Export Plug-In  -->
<!DOCTYPE svg PUBLIC "-//W3C//DTD SVG 1.1//EN" "http://www.w3.org/Graphics/SVG/1.1/DTD/svg11.dtd" [
	<!ENTITY ns_flows "http://ns.adobe.com/Flows/1.0/">
]>
<svg version="1.1"
	 xmlns="http://www.w3.org/2000/svg" xmlns:xlink="http://www.w3.org/1999/xlink" xmlns:a="http://ns.adobe.com/AdobeSVGViewerExtensions/3.0/"
	 x="0px" y="0px" width="306px" height="98px" viewBox="-0.45 0 306 98" preserveAspectRatio="xMidYMid meet" overflow="visible" enable-background="new -0.45 0 306 98"
	 xml:space="preserve">
<defs>
</defs>
<rect x="9.55" y="88" fill="#FFD9DA" width="304" height="9"/>
<rect x="9.55" y="77" fill="#FFF3DC" width="304" height="9"/>
<rect x="9.55" y="66" fill="#FCFDD8" width="304" height="9"/>
<rect x="9.55" y="55" fill="#DBFADA" width="304" height="9"/>
<rect x="9.55" y="44" fill="#E4DAFF" width="304" height="9"/>
<rect x="9.55" y="33" fill="#F5DAFB" width="304" height="9"/>
<rect x="9.55" y="22" fill="#FFDAF9" width="304" height="9"/>
<rect x="141.55" y="22" fill="#231F20" width="1" height="142"/>
<rect x="274.55" y="22" fill="#231F20" width="1" height="142"/>
<rect x="74.55" y="22" fill="#FFFFFF" width="2" height="75"/>
<rect x="41.55" y="22" fill="#FFFFFF" width="1" height="75"/>
<rect x="108.55" y="22" fill="#FFFFFF" width="1" height="74"/>
<rect x="174.55" y="22" fill="#FFFFFF" width="1" height="76"/>
<rect x="241.55" y="22" fill="#FFFFFF" width="1" height="76"/>
<rect x="207.55" y="22" fill="#FFFFFF" width="2" height="75"/>
<rect x="9.55" y="88" fill="#FF0000" width="65" height="9"/>
<rect x="142.55" y="66" fill="#EFE700" width="65" height="9"/>
<rect x="275.55" y="44" fill="#0000FF" width="75" height="9"/>
<circle fill="#231F20" cx="224.05" cy="7.5" r="7.5"/>
<rect x="9.55" y="97" fill="#231F20" width="298" height="1"/>
<rect x="9.55" y="21" fill="#231F20" width="298" height="1"/>
<rect x="76.55" y="77" fill="#FAAF3B" width="65" height="9"/>
<rect x="8.55" y="21" fill="#231F20" width="1" height="142"/>
<path d="M0.861,90.687v-0.809c0.762-0.074,1.293-0.198,1.594-0.372s0.525-0.585,0.674-1.233h0.832v8.355H2.836v-5.941H0.861z"/>
<path d="M0.536,83.741c0.26-0.535,0.767-1.021,1.521-1.459l1.125-0.65c0.504-0.293,0.857-0.543,1.061-0.751
	c0.32-0.324,0.48-0.696,0.48-1.115c0-0.489-0.146-0.878-0.439-1.165C3.99,78.312,3.6,78.169,3.111,78.169
	c-0.723,0-1.223,0.274-1.5,0.822c-0.148,0.294-0.23,0.702-0.246,1.223H0.293c0.012-0.73,0.146-1.326,0.404-1.787
	c0.457-0.812,1.264-1.219,2.42-1.219c0.961,0,1.663,0.26,2.106,0.779s0.665,1.098,0.665,1.734c0,0.672-0.236,1.246-0.709,1.723
	c-0.273,0.277-0.764,0.613-1.471,1.008l-0.803,0.445c-0.383,0.211-0.684,0.412-0.902,0.604c-0.391,0.34-0.637,0.717-0.738,1.131
	h4.582v0.996h-5.76C0.127,84.905,0.276,84.276,0.536,83.741z"/>
<path d="M0.671,74.039C0.224,73.494,0,72.831,0,72.05h1.102c0.047,0.543,0.148,0.938,0.305,1.184
	c0.273,0.441,0.768,0.662,1.482,0.662c0.555,0,1-0.148,1.336-0.445s0.504-0.68,0.504-1.148c0-0.578-0.177-0.982-0.53-1.213
	s-0.845-0.346-1.474-0.346c-0.07,0-0.142,0.001-0.214,0.003s-0.146,0.005-0.22,0.009v-0.932c0.109,0.012,0.201,0.02,0.275,0.023
	s0.154,0.006,0.24,0.006c0.395,0,0.719-0.062,0.973-0.188c0.445-0.219,0.668-0.609,0.668-1.172c0-0.418-0.148-0.74-0.445-0.967
	s-0.643-0.34-1.037-0.34c-0.703,0-1.189,0.234-1.459,0.703c-0.148,0.258-0.232,0.625-0.252,1.102H0.211
	c0-0.625,0.125-1.156,0.375-1.594c0.43-0.781,1.186-1.172,2.268-1.172c0.855,0,1.518,0.19,1.986,0.571s0.703,0.933,0.703,1.655
	c0,0.516-0.139,0.934-0.416,1.254c-0.172,0.199-0.395,0.355-0.668,0.469c0.441,0.121,0.786,0.354,1.034,0.7s0.372,0.769,0.372,1.269
	c0,0.801-0.264,1.453-0.791,1.957s-1.275,0.756-2.244,0.756C1.838,74.856,1.118,74.584,0.671,74.039z"/>
<path d="M3.697,63.628v-2.051h-3.68v-1.031l3.844-5.332h0.891v5.443h1.236v0.92H4.752v2.051H3.697z M3.68,60.657v-3.812L0.99,60.657
	H3.68z"/>
<path d="M1.195,50.489c0.07,0.602,0.35,1.018,0.838,1.248c0.25,0.117,0.539,0.176,0.867,0.176c0.625,0,1.088-0.199,1.389-0.598
	s0.451-0.84,0.451-1.324c0-0.586-0.179-1.039-0.536-1.359s-0.786-0.48-1.286-0.48c-0.363,0-0.675,0.07-0.935,0.211
	s-0.481,0.336-0.665,0.586l-0.914-0.053l0.639-4.518h4.359v1.02H1.834l-0.357,2.332c0.195-0.148,0.381-0.26,0.557-0.334
	c0.312-0.129,0.674-0.193,1.084-0.193c0.77,0,1.422,0.248,1.957,0.744s0.803,1.125,0.803,1.887c0,0.793-0.245,1.492-0.735,2.098
	s-1.272,0.908-2.347,0.908c-0.684,0-1.288-0.192-1.813-0.577S0.162,51.286,0.1,50.489H1.195z"/>
<path d="M5.183,33.932c0.369,0.486,0.554,0.987,0.554,1.503H4.693c-0.062-0.332-0.162-0.592-0.299-0.779
	c-0.254-0.352-0.639-0.527-1.154-0.527c-0.59,0-1.059,0.272-1.406,0.817s-0.541,1.325-0.58,2.341
	c0.242-0.355,0.547-0.621,0.914-0.797c0.336-0.156,0.711-0.234,1.125-0.234c0.703,0,1.316,0.225,1.84,0.674s0.785,1.119,0.785,2.01
	c0,0.762-0.248,1.437-0.744,2.024s-1.203,0.882-2.121,0.882c-0.785,0-1.463-0.298-2.033-0.894s-0.855-1.599-0.855-3.009
	c0-1.043,0.127-1.928,0.381-2.654c0.488-1.391,1.381-2.086,2.678-2.086C4.16,33.202,4.813,33.445,5.183,33.932z M4.392,40.348
	c0.275-0.373,0.413-0.813,0.413-1.321c0-0.43-0.123-0.839-0.369-1.228s-0.693-0.583-1.342-0.583c-0.453,0-0.851,0.15-1.192,0.451
	s-0.513,0.754-0.513,1.359c0,0.531,0.155,0.978,0.466,1.339s0.741,0.542,1.292,0.542C3.701,40.907,4.116,40.721,4.392,40.348z"/>
<path d="M5.988,21.378v0.92c-0.27,0.262-0.628,0.717-1.075,1.365s-0.843,1.348-1.187,2.098c-0.34,0.73-0.598,1.396-0.773,1.998
	c-0.113,0.387-0.26,1.01-0.439,1.869H1.348c0.266-1.602,0.852-3.195,1.758-4.781c0.535-0.93,1.098-1.732,1.688-2.408H0.152v-1.061
	H5.988z"/>
<rect x="209.55" y="55" fill="#5DC72E" width="65" height="9"/>
<rect x="223.019" y="11" fill="#231F20" width="2.062" height="87"/>
</svg>
