<?xml version="1.0" encoding="utf-8"?>
<!-- Generator: Adobe Illustrator 15.1.0, SVG Export Plug-In  -->
<!DOCTYPE svg PUBLIC "-//W3C//DTD SVG 1.1//EN" "http://www.w3.org/Graphics/SVG/1.1/DTD/svg11.dtd" [
	<!ENTITY ns_flows "http://ns.adobe.com/Flows/1.0/">
]>
<svg version="1.1"
	 xmlns="http://www.w3.org/2000/svg" xmlns:xlink="http://www.w3.org/1999/xlink" xmlns:a="http://ns.adobe.com/AdobeSVGViewerExtensions/3.0/"
	 x="0px" y="0px" width="252px" height="62px" viewBox="9 0 252 62" overflow="visible" enable-background="new 9 0 252 62"
	 xml:space="preserve">
<defs>
</defs>
<rect fill="#FF0000" width="65" height="5"/>
<rect y="47" fill="#FF0000" width="65" height="5"/>
<rect y="5" fill="#EAEAEA" width="65" height="42"/>
<rect x="65" fill="#FFFFFF" width="2" height="52"/>
<rect x="32" fill="#FFFFFF" width="1" height="52"/>
<rect x="67" fill="#FF0000" width="65" height="5"/>
<rect x="67" y="47" fill="#FF0000" width="65" height="5"/>
<rect x="67" y="5" fill="#EAEAEA" width="65" height="42"/>
<rect x="99" fill="#FFFFFF" width="1" height="52"/>
<path d="M67.347,28.651c0,3.169,0,5.776,0.168,7.162c0.101,0.957,0.303,1.684,1.312,1.815c0.471,0.066,1.21,0.132,1.513,0.132
	c0.202,0,0.269,0.1,0.269,0.198c0,0.165-0.168,0.264-0.538,0.264c-1.85,0-3.968-0.099-4.137-0.099c-0.168,0-2.287,0.099-3.295,0.099
	c-0.37,0-0.538-0.065-0.538-0.264c0-0.099,0.067-0.198,0.269-0.198c0.303,0,0.706-0.065,1.009-0.132
	c0.673-0.132,0.841-0.858,0.975-1.815c0.168-1.386,0.168-3.993,0.168-7.162v-5.809c0-5.148,0-6.073-0.067-7.129
	c-0.067-1.122-0.403-1.684-1.144-1.849c-0.37-0.099-0.807-0.132-1.042-0.132c-0.134,0-0.269-0.065-0.269-0.198
	c0-0.197,0.168-0.264,0.538-0.264c1.11,0,3.229,0.099,3.396,0.099c0.168,0,2.287-0.099,3.296-0.099c0.37,0,0.538,0.066,0.538,0.264
	c0,0.133-0.134,0.198-0.269,0.198c-0.235,0-0.437,0.033-0.841,0.099c-0.908,0.165-1.177,0.727-1.244,1.882
	c-0.067,1.056-0.067,1.98-0.067,7.129V28.651z"/>
<rect x="135" y="10" fill="#5DC72E" width="66" height="5"/>
<rect x="135" y="57" fill="#5DC72E" width="66" height="5"/>
<rect x="135" y="15" fill="#EAEAEA" width="66" height="42"/>
<rect x="167" y="10" fill="#FFFFFF" width="1" height="52"/>
<path d="M156.145,38.651c0,3.169,0,5.776,0.165,7.162c0.099,0.957,0.297,1.684,1.287,1.815c0.462,0.066,1.188,0.132,1.485,0.132
	c0.197,0,0.264,0.1,0.264,0.198c0,0.165-0.165,0.264-0.528,0.264c-1.815,0-3.895-0.099-4.06-0.099s-2.244,0.099-3.234,0.099
	c-0.363,0-0.528-0.065-0.528-0.264c0-0.099,0.066-0.198,0.265-0.198c0.297,0,0.693-0.065,0.99-0.132
	c0.66-0.132,0.825-0.858,0.957-1.815c0.165-1.386,0.165-3.993,0.165-7.162v-5.809c0-5.148,0-6.073-0.066-7.129
	c-0.065-1.122-0.396-1.684-1.122-1.849c-0.363-0.099-0.792-0.132-1.023-0.132c-0.132,0-0.264-0.065-0.264-0.198
	c0-0.197,0.165-0.264,0.528-0.264c1.089,0,3.168,0.099,3.333,0.099s2.244-0.099,3.234-0.099c0.363,0,0.528,0.066,0.528,0.264
	c0,0.133-0.132,0.198-0.264,0.198c-0.231,0-0.43,0.033-0.825,0.099c-0.892,0.165-1.155,0.727-1.222,1.882
	c-0.065,1.056-0.065,1.98-0.065,7.129V38.651z"/>
<path d="M175.054,44.196c1.914-4.423,6.337-15.941,7.062-18.317c0.165-0.495,0.297-0.957,0.297-1.254
	c0-0.265-0.099-0.595-0.429-0.76c-0.396-0.132-0.891-0.132-1.254-0.132c-0.198,0-0.363-0.033-0.363-0.198
	c0-0.197,0.198-0.264,0.727-0.264c1.319,0,2.838,0.099,3.234,0.099c0.197,0,1.617-0.099,2.574-0.099
	c0.363,0,0.561,0.066,0.561,0.231s-0.132,0.23-0.396,0.23c-0.231,0-0.957,0-1.584,0.396c-0.43,0.297-0.925,0.857-1.815,3.103
	c-0.363,0.924-2.014,4.885-3.697,8.944c-2.013,4.818-3.498,8.383-4.257,10c-0.925,1.98-1.057,2.509-1.387,2.509
	c-0.396,0-0.561-0.463-1.188-2.047l-8.087-20.231c-0.726-1.849-1.221-2.212-2.376-2.542c-0.495-0.132-1.057-0.132-1.254-0.132
	c-0.198,0-0.265-0.099-0.265-0.23c0-0.198,0.33-0.231,0.858-0.231c1.584,0,3.466,0.099,3.861,0.099c0.33,0,1.815-0.099,3.069-0.099
	c0.595,0,0.892,0.066,0.892,0.231s-0.1,0.23-0.33,0.23c-0.363,0-0.957,0.033-1.254,0.165c-0.363,0.165-0.43,0.429-0.43,0.66
	c0,0.429,0.396,1.452,0.892,2.739L175.054,44.196z"/>
<rect x="204" fill="#0000FF" width="65" height="5"/>
<rect x="204" y="47" fill="#0000FF" width="65" height="5"/>
<rect x="204" y="5" fill="#EAEAEA" width="65" height="42"/>
<rect x="236" fill="#FFFFFF" width="1" height="52"/>
<path d="M237.294,34.196c1.914-4.423,6.337-15.941,7.062-18.317c0.165-0.495,0.297-0.957,0.297-1.254
	c0-0.265-0.099-0.595-0.429-0.76c-0.396-0.132-0.891-0.132-1.254-0.132c-0.198,0-0.363-0.033-0.363-0.198
	c0-0.197,0.198-0.264,0.727-0.264c1.319,0,2.838,0.099,3.234,0.099c0.197,0,1.617-0.099,2.574-0.099
	c0.363,0,0.561,0.066,0.561,0.231s-0.132,0.23-0.396,0.23c-0.231,0-0.957,0-1.584,0.396c-0.43,0.297-0.925,0.857-1.815,3.103
	c-0.363,0.924-2.014,4.885-3.697,8.944c-2.013,4.818-3.498,8.383-4.257,10c-0.925,1.98-1.057,2.509-1.387,2.509
	c-0.396,0-0.561-0.463-1.188-2.047l-8.087-20.231c-0.726-1.849-1.221-2.212-2.376-2.542c-0.495-0.132-1.057-0.132-1.254-0.132
	c-0.198,0-0.265-0.099-0.265-0.23c0-0.198,0.33-0.231,0.858-0.231c1.584,0,3.466,0.099,3.861,0.099c0.33,0,1.815-0.099,3.069-0.099
	c0.595,0,0.892,0.066,0.892,0.231s-0.1,0.23-0.33,0.23c-0.363,0-0.957,0.033-1.254,0.165c-0.363,0.165-0.43,0.429-0.43,0.66
	c0,0.429,0.396,1.452,0.892,2.739L237.294,34.196z"/>
</svg>
