<?xml version="1.0" encoding="utf-8"?>
<!-- Generator: Adobe Illustrator 15.1.0, SVG Export Plug-In  -->
<!DOCTYPE svg PUBLIC "-//W3C//DTD SVG 1.1//EN" "http://www.w3.org/Graphics/SVG/1.1/DTD/svg11.dtd" [
	<!ENTITY ns_flows "http://ns.adobe.com/Flows/1.0/">
]>
<svg version="1.1"
	 xmlns="http://www.w3.org/2000/svg" xmlns:xlink="http://www.w3.org/1999/xlink" xmlns:a="http://ns.adobe.com/AdobeSVGViewerExtensions/3.0/"
	 x="0px" y="0px" width="253px" height="62px" viewBox="8 0 253 62" overflow="visible" enable-background="new 8 0 253 62"
	 xml:space="preserve">
<defs>
</defs>
<rect y="10" fill="#FAAF3B" width="65" height="5"/>
<rect y="57" fill="#FAAF3B" width="65" height="5"/>
<rect y="15" fill="#EAEAEA" width="65" height="42"/>
<rect x="65" y="10" fill="#FFFFFF" width="2" height="52"/>
<rect x="32" y="10" fill="#FFFFFF" width="1" height="52"/>
<rect x="67" y="10" fill="#FAAF3B" width="65" height="5"/>
<rect x="67" y="57" fill="#FAAF3B" width="65" height="5"/>
<rect x="67" y="15" fill="#EAEAEA" width="65" height="42"/>
<rect x="99" y="10" fill="#FFFFFF" width="1" height="52"/>
<rect x="135" fill="#F1DF3F" width="65" height="5"/>
<rect x="135" y="47" fill="#F1DF3F" width="65" height="5"/>
<rect x="135" y="5" fill="#EAEAEA" width="65" height="42"/>
<rect x="200" fill="#FFFFFF" width="2" height="52"/>
<rect x="167" fill="#FFFFFF" width="1" height="52"/>
<rect x="202" fill="#F1DF3F" width="65" height="5"/>
<rect x="202" y="47" fill="#F1DF3F" width="65" height="5"/>
<rect x="202" y="5" fill="#EAEAEA" width="65" height="42"/>
<rect x="234" fill="#FFFFFF" width="1" height="52"/>
<path d="M193.139,21.345v12.219c0,0.952,0.069,1.585,0.208,1.901c0.138,0.314,0.343,0.55,0.614,0.705
	c0.271,0.155,0.766,0.232,1.486,0.232V37h-7.388v-0.598c0.741,0,1.239-0.072,1.494-0.216c0.254-0.144,0.457-0.382,0.606-0.714
	s0.224-0.969,0.224-1.909v-5.86c0-1.649-0.05-2.717-0.149-3.204c-0.078-0.354-0.199-0.601-0.365-0.739
	c-0.166-0.138-0.393-0.207-0.681-0.207c-0.31,0-0.687,0.083-1.129,0.249l-0.232-0.598l4.582-1.859H193.139z M191.761,13.393
	c0.465,0,0.86,0.163,1.187,0.49c0.326,0.326,0.49,0.722,0.49,1.187s-0.164,0.863-0.49,1.195c-0.327,0.332-0.722,0.498-1.187,0.498
	s-0.863-0.166-1.195-0.498s-0.498-0.73-0.498-1.195s0.163-0.86,0.49-1.187C190.884,13.556,191.285,13.393,191.761,13.393z"/>
<path d="M202.585,21.345v12.219c0,0.952,0.069,1.585,0.208,1.901c0.138,0.314,0.343,0.55,0.614,0.705
	c0.271,0.155,0.766,0.232,1.486,0.232V37h-7.388v-0.598c0.741,0,1.239-0.072,1.494-0.216c0.254-0.144,0.457-0.382,0.606-0.714
	s0.224-0.969,0.224-1.909v-5.86c0-1.649-0.05-2.717-0.149-3.204c-0.078-0.354-0.199-0.601-0.365-0.739
	c-0.166-0.138-0.393-0.207-0.681-0.207c-0.31,0-0.687,0.083-1.129,0.249l-0.232-0.598l4.582-1.859H202.585z M201.208,13.393
	c0.465,0,0.86,0.163,1.187,0.49c0.326,0.326,0.49,0.722,0.49,1.187s-0.164,0.863-0.49,1.195c-0.327,0.332-0.722,0.498-1.187,0.498
	s-0.863-0.166-1.195-0.498s-0.498-0.73-0.498-1.195s0.163-0.86,0.49-1.187C200.33,13.556,200.731,13.393,201.208,13.393z"/>
<path d="M212.032,21.345v12.219c0,0.952,0.069,1.585,0.208,1.901c0.138,0.314,0.343,0.55,0.614,0.705
	c0.271,0.155,0.766,0.232,1.486,0.232V37h-7.388v-0.598c0.741,0,1.239-0.072,1.494-0.216c0.254-0.144,0.457-0.382,0.606-0.714
	s0.224-0.969,0.224-1.909v-5.86c0-1.649-0.05-2.717-0.149-3.204c-0.078-0.354-0.199-0.601-0.365-0.739
	c-0.166-0.138-0.393-0.207-0.681-0.207c-0.31,0-0.687,0.083-1.129,0.249l-0.232-0.598l4.582-1.859H212.032z M210.654,13.393
	c0.465,0,0.86,0.163,1.187,0.49c0.326,0.326,0.49,0.722,0.49,1.187s-0.164,0.863-0.49,1.195c-0.327,0.332-0.722,0.498-1.187,0.498
	s-0.863-0.166-1.195-0.498s-0.498-0.73-0.498-1.195s0.163-0.86,0.49-1.187C209.776,13.556,210.178,13.393,210.654,13.393z"/>
<path d="M62.862,31.345v12.219c0,0.952,0.069,1.585,0.208,1.901c0.138,0.314,0.343,0.55,0.614,0.705
	c0.271,0.155,0.766,0.232,1.486,0.232V47h-7.388v-0.598c0.741,0,1.239-0.072,1.494-0.216c0.254-0.144,0.457-0.382,0.606-0.714
	s0.224-0.969,0.224-1.909v-5.86c0-1.649-0.05-2.717-0.149-3.204c-0.078-0.354-0.199-0.601-0.365-0.739
	c-0.166-0.138-0.393-0.207-0.681-0.207c-0.31,0-0.687,0.083-1.129,0.249l-0.232-0.598l4.582-1.859H62.862z M61.484,23.393
	c0.465,0,0.86,0.163,1.187,0.49c0.326,0.326,0.49,0.722,0.49,1.187s-0.164,0.863-0.49,1.195c-0.327,0.332-0.722,0.498-1.187,0.498
	s-0.863-0.166-1.195-0.498s-0.498-0.73-0.498-1.195s0.163-0.86,0.49-1.187C60.607,23.556,61.008,23.393,61.484,23.393z"/>
<path d="M72.309,31.345v12.219c0,0.952,0.069,1.585,0.208,1.901c0.138,0.314,0.343,0.55,0.614,0.705
	c0.271,0.155,0.766,0.232,1.486,0.232V47h-7.388v-0.598c0.741,0,1.239-0.072,1.494-0.216c0.254-0.144,0.457-0.382,0.606-0.714
	s0.224-0.969,0.224-1.909v-5.86c0-1.649-0.05-2.717-0.149-3.204c-0.078-0.354-0.199-0.601-0.365-0.739
	c-0.166-0.138-0.393-0.207-0.681-0.207c-0.31,0-0.687,0.083-1.129,0.249l-0.232-0.598l4.582-1.859H72.309z M70.931,23.393
	c0.465,0,0.86,0.163,1.187,0.49c0.326,0.326,0.49,0.722,0.49,1.187s-0.164,0.863-0.49,1.195c-0.327,0.332-0.722,0.498-1.187,0.498
	s-0.863-0.166-1.195-0.498s-0.498-0.73-0.498-1.195s0.163-0.86,0.49-1.187C70.053,23.556,70.455,23.393,70.931,23.393z"/>
</svg>
