<?xml version="1.0" encoding="utf-8"?>
<!-- Generator: Adobe Illustrator 15.1.0, SVG Export Plug-In  -->
<!DOCTYPE svg PUBLIC "-//W3C//DTD SVG 1.1//EN" "http://www.w3.org/Graphics/SVG/1.1/DTD/svg11.dtd" [
	<!ENTITY ns_flows "http://ns.adobe.com/Flows/1.0/">
]>
<svg version="1.1"
	 xmlns="http://www.w3.org/2000/svg" xmlns:xlink="http://www.w3.org/1999/xlink" xmlns:a="http://ns.adobe.com/AdobeSVGViewerExtensions/3.0/"
	 x="0px" y="0px" width="253px" height="62px" viewBox="8 0 253 62" overflow="visible" enable-background="new 8 0 253 62"
	 xml:space="preserve">
<defs>
</defs>
<rect y="10" fill="#FF00CD" width="65" height="5"/>
<rect y="57" fill="#FF00CD" width="65" height="5"/>
<rect y="15" fill="#EAEAEA" width="65" height="42"/>
<rect x="65" y="10" fill="#FFFFFF" width="2" height="52"/>
<rect x="32" y="10" fill="#FFFFFF" width="1" height="52"/>
<rect x="67" y="10" fill="#FF00CD" width="65" height="5"/>
<rect x="67" y="57" fill="#FF00CD" width="65" height="5"/>
<rect x="67" y="15" fill="#EAEAEA" width="65" height="42"/>
<rect x="99" y="10" fill="#FFFFFF" width="1" height="52"/>
<rect x="135" fill="#0000FF" width="65" height="5"/>
<rect x="135" y="47" fill="#0000FF" width="65" height="5"/>
<rect x="135" y="5" fill="#EAEAEA" width="65" height="42"/>
<rect x="200" fill="#FFFFFF" width="2" height="52"/>
<rect x="167" fill="#FFFFFF" width="1" height="52"/>
<rect x="202" fill="#0000FF" width="65" height="5"/>
<rect x="202" y="47" fill="#0000FF" width="65" height="5"/>
<rect x="202" y="5" fill="#EAEAEA" width="65" height="42"/>
<rect x="234" fill="#FFFFFF" width="1" height="52"/>
<path d="M63.355,44.925c1.949-4.423,6.457-15.941,7.196-18.317c0.168-0.495,0.303-0.957,0.303-1.254c0-0.265-0.101-0.595-0.438-0.76
	c-0.403-0.132-0.907-0.132-1.278-0.132c-0.201,0-0.369-0.033-0.369-0.198c0-0.197,0.201-0.264,0.74-0.264
	c1.345,0,2.892,0.099,3.295,0.099c0.202,0,1.648-0.099,2.623-0.099C75.798,24,76,24.066,76,24.231s-0.135,0.23-0.404,0.23
	c-0.234,0-0.975,0-1.613,0.396c-0.438,0.297-0.941,0.857-1.85,3.103c-0.371,0.924-2.052,4.885-3.768,8.944
	c-2.051,4.818-3.564,8.383-4.338,10c-0.941,1.98-1.076,2.509-1.412,2.509c-0.404,0-0.572-0.463-1.211-2.047l-8.239-20.231
	c-0.74-1.849-1.245-2.212-2.422-2.542c-0.505-0.132-1.076-0.132-1.278-0.132c-0.201,0-0.269-0.099-0.269-0.23
	c0-0.198,0.337-0.231,0.874-0.231c1.615,0,3.531,0.099,3.936,0.099c0.336,0,1.85-0.099,3.127-0.099c0.605,0,0.908,0.066,0.908,0.231
	s-0.101,0.23-0.336,0.23c-0.37,0-0.976,0.033-1.278,0.165c-0.37,0.165-0.437,0.429-0.437,0.66c0,0.429,0.403,1.452,0.908,2.739
	L63.355,44.925z"/>
<path d="M82.844,24.242c0.492,0.648,0.738,1.316,0.738,2.004h-1.391c-0.083-0.442-0.216-0.789-0.398-1.039
	c-0.339-0.469-0.852-0.703-1.539-0.703c-0.787,0-1.412,0.363-1.875,1.09c-0.464,0.727-0.722,1.767-0.773,3.121
	c0.323-0.474,0.729-0.828,1.219-1.062c0.448-0.208,0.948-0.312,1.5-0.312c0.938,0,1.755,0.3,2.453,0.898
	c0.698,0.599,1.047,1.492,1.047,2.68c0,1.016-0.331,1.915-0.992,2.699c-0.662,0.784-1.604,1.176-2.828,1.176
	c-1.047,0-1.951-0.397-2.711-1.191c-0.761-0.794-1.141-2.132-1.141-4.012c0-1.391,0.169-2.57,0.508-3.539
	c0.651-1.854,1.841-2.781,3.57-2.781C81.48,23.27,82.352,23.594,82.844,24.242z M81.789,32.797c0.367-0.497,0.551-1.085,0.551-1.762
	c0-0.573-0.164-1.118-0.492-1.637s-0.925-0.777-1.789-0.777c-0.604,0-1.134,0.2-1.59,0.602c-0.456,0.401-0.684,1.005-0.684,1.812
	c0,0.708,0.207,1.304,0.621,1.785s0.988,0.723,1.723,0.723C80.868,33.543,81.422,33.294,81.789,32.797z"/>
<path d="M208.281,38.219v-2.734h-4.906v-1.375L208.5,27h1.188v7.258h1.648v1.227h-1.648v2.734H208.281z M208.258,34.258v-5.081
	l-3.586,5.081H208.258z"/>
<path d="M197.347,28.38c0,3.169,0,5.776,0.168,7.162c0.101,0.957,0.303,1.684,1.312,1.815c0.471,0.066,1.21,0.132,1.513,0.132
	c0.202,0,0.269,0.1,0.269,0.198c0,0.165-0.168,0.264-0.538,0.264c-1.85,0-3.968-0.099-4.137-0.099c-0.168,0-2.287,0.099-3.295,0.099
	c-0.37,0-0.538-0.065-0.538-0.264c0-0.099,0.067-0.198,0.269-0.198c0.303,0,0.706-0.065,1.009-0.132
	c0.673-0.132,0.841-0.858,0.975-1.815c0.168-1.386,0.168-3.993,0.168-7.162v-5.809c0-5.148,0-6.073-0.067-7.129
	c-0.067-1.122-0.403-1.684-1.144-1.849c-0.37-0.099-0.807-0.132-1.042-0.132c-0.134,0-0.269-0.065-0.269-0.198
	c0-0.197,0.168-0.264,0.538-0.264c1.11,0,3.229,0.099,3.396,0.099c0.168,0,2.287-0.099,3.296-0.099c0.37,0,0.538,0.066,0.538,0.264
	c0,0.133-0.134,0.198-0.269,0.198c-0.235,0-0.437,0.033-0.841,0.099c-0.908,0.165-1.177,0.727-1.244,1.882
	c-0.067,1.056-0.067,1.98-0.067,7.129V28.38z"/>
<path d="M210.273,13.449c0.492,0.648,0.738,1.316,0.738,2.004h-1.391c-0.083-0.442-0.216-0.789-0.398-1.039
	c-0.339-0.469-0.852-0.703-1.539-0.703c-0.787,0-1.412,0.363-1.875,1.09c-0.464,0.727-0.722,1.767-0.773,3.121
	c0.323-0.474,0.729-0.828,1.219-1.062c0.448-0.208,0.948-0.312,1.5-0.312c0.938,0,1.755,0.3,2.453,0.898
	c0.698,0.599,1.047,1.492,1.047,2.68c0,1.016-0.331,1.915-0.992,2.699C209.6,23.608,208.657,24,207.434,24
	c-1.047,0-1.951-0.397-2.711-1.191c-0.761-0.794-1.141-2.132-1.141-4.012c0-1.391,0.169-2.57,0.508-3.539
	c0.651-1.854,1.841-2.781,3.57-2.781C208.91,12.477,209.781,12.801,210.273,13.449z M209.219,22.004
	c0.367-0.497,0.551-1.085,0.551-1.762c0-0.573-0.164-1.118-0.492-1.637s-0.925-0.777-1.789-0.777c-0.604,0-1.134,0.2-1.59,0.602
	c-0.456,0.401-0.684,1.005-0.684,1.812c0,0.708,0.207,1.304,0.621,1.785s0.988,0.723,1.723,0.723
	C208.298,22.75,208.852,22.501,209.219,22.004z"/>
</svg>
